<svg width="6" height="14" viewBox="0 0 12 20" fill="black" xmlns="http://www.w3.org/2000/svg">
<path d="M1.14999 19.1C0.899994 18.85 0.774994 18.554 0.774994 18.212C0.774994 17.87 0.899994 17.5743 1.14999 17.325L8.47499 10L1.12499 2.65C0.89166 2.41667 0.774994 2.125 0.774994 1.775C0.774994 1.425 0.899994 1.125 1.14999 0.875C1.39999 0.625 1.69599 0.5 2.03799 0.5C2.37999 0.5 2.67566 0.625 2.92499 0.875L11.325 9.3C11.425 9.4 11.496 9.50833 11.538 9.625C11.58 9.74167 11.6007 9.86667 11.6 10C11.6 10.1333 11.579 10.2583 11.537 10.375C11.495 10.4917 11.4243 10.6 11.325 10.7L2.89999 19.125C2.66666 19.3583 2.37899 19.475 2.03699 19.475C1.69499 19.475 1.39933 19.35 1.14999 19.1Z"/>
</svg>
